ffmpeg started on 2016-12-01 at 15:33:19
Report written to "Output/x264/results/ffmpeg/old_town_cross_2160p50slow4000k.log"
Command line:
Tools/ffmpeg/ffmpeg -benchmark -y -i Input/y4m/old_town_cross_2160p50.y4m -c:v libx264 -preset slow -b:v 4000k -an Output/x264/encoded/old_town_cross_2160p50slow4000k.mkv
ffmpeg version N-82227-gdb23fde Copyright (c) 2000-2016 the FFmpeg developers
  built with gcc 5.4.0 (Ubuntu 5.4.0-6ubuntu1~16.04.2) 20160609
  configuration: --prefix=/home/jaroslav/ffmpeg_build --pkg-config-flags=--static --extra-cflags=-I/home/jaroslav/ffmpeg_build/include --extra-ldflags=-L/home/jaroslav/ffmpeg_build/lib --bindir=/home/jaroslav/bin --enable-gpl --enable-libass --enable-libfdk-aac --enable-libfreetype --enable-libmp3lame --enable-libopus --enable-libtheora --enable-libvorbis --enable-libvpx --enable-libx264 --enable-libx265 --enable-nvenc --enable-libmfx --enable-libxvid --enable-libgsm --enable-libopencore-amrnb --enable-version3 --enable-nonfree
  libavutil      55. 35.100 / 55. 35.100
  libavcodec     57. 66.101 / 57. 66.101
  libavformat    57. 57.100 / 57. 57.100
  libavdevice    57.  2.100 / 57.  2.100
  libavfilter     6. 66.100 /  6. 66.100
  libswscale      4.  3.100 /  4.  3.100
  libswresample   2.  4.100 /  2.  4.100
  libpostproc    54.  2.100 / 54.  2.100
Input #0, yuv4mpegpipe, from 'Input/y4m/old_town_cross_2160p50.y4m':
  Duration: 00:00:10.00, start: 0.000000, bitrate: 4976642 kb/s
    Stream #0:0: Video: rawvideo (I420 / 0x30323449), yuv420p(progressive), 3840x2160, SAR 1:1 DAR 16:9, 50 fps, 50 tbr, 50 tbn, 50 tbc
[libx264 @ 0x28d8120] using SAR=1/1
[libx264 @ 0x28d8120] using cpu capabilities: MMX2 SSE2Fast SSSE3 SSE4.2 AVX FMA3 AVX2 LZCNT BMI2
[libx264 @ 0x28d8120] profile High, level 5.2
[libx264 @ 0x28d8120] 264 - core 148 - H.264/MPEG-4 AVC codec - Copyleft 2003-2016 - http://www.videolan.org/x264.html - options: cabac=1 ref=5 deblock=1:0:0 analyse=0x3:0x113 me=hex subme=8 psy=1 psy_rd=1.00:0.00 mixed_ref=1 me_range=16 chroma_me=1 trellis=2 8x8dct=1 cqm=0 deadzone=21,11 fast_pskip=1 chroma_qp_offset=-2 threads=6 lookahead_threads=1 sliced_threads=0 nr=0 decimate=1 interlaced=0 bluray_compat=0 constrained_intra=0 bframes=3 b_pyramid=2 b_adapt=1 b_bias=0 direct=3 weightb=1 open_gop=0 weightp=2 keyint=250 keyint_min=25 scenecut=40 intra_refresh=0 rc_lookahead=50 rc=abr mbtree=1 bitrate=4000 ratetol=1.0 qcomp=0.60 qpmin=0 qpmax=69 qpstep=4 ip_ratio=1.40 aq=1:1.00
Output #0, matroska, to 'Output/x264/encoded/old_town_cross_2160p50slow4000k.mkv':
  Metadata:
    encoder         : Lavf57.57.100
    Stream #0:0: Video: h264 (libx264) (H264 / 0x34363248), yuv420p, 3840x2160 [SAR 1:1 DAR 16:9], q=-1--1, 4000 kb/s, 50 fps, 1k tbn, 50 tbc
    Metadata:
      encoder         : Lavc57.66.101 libx264
    Side data:
      cpb: bitrate max/min/avg: 0/0/4000000 buffer size: 0 vbv_delay: -1
Stream mapping:
  Stream #0:0 -> #0:0 (rawvideo (native) -> h264 (libx264))
Press [q] to stop, [?] for help
frame=   57 fps= 18 q=0.0 size=       0kB time=00:00:00.00 bitrate=N/A speed=   0x    frame=   64 fps= 17 q=42.0 size=       1kB time=00:00:00.02 bitrate= 279.6kbits/s speed=0.00573x    frame=   72 fps= 17 q=48.0 size=       1kB time=00:00:00.18 bitrate=  32.4kbits/s speed=0.0434x    frame=   79 fps= 17 q=45.0 size=       1kB time=00:00:00.32 bitrate=  18.3kbits/s speed=0.068x    frame=   84 fps= 16 q=43.0 size=       1kB time=00:00:00.42 bitrate=  13.9kbits/s speed=0.0805x    frame=   92 fps= 16 q=42.0 size=       1kB time=00:00:00.58 bitrate=  10.1kbits/s speed= 0.1x    frame=  100 fps= 15 q=42.0 size=       1kB time=00:00:00.74 bitrate=   7.9kbits/s speed=0.115x    frame=  107 fps= 15 q=41.0 size=       1kB time=00:00:00.88 bitrate=   6.7kbits/s speed=0.125x    frame=  113 fps= 15 q=41.0 size=       1kB time=00:00:01.00 bitrate=   5.9kbits/s speed=0.132x    frame=  119 fps= 15 q=41.0 size=       1kB time=00:00:01.12 bitrate=   5.2kbits/s speed=0.138x    frame=  126 fps= 14 q=40.0 size=       1kB time=00:00:01.26 bitrate=   4.7kbits/s speed=0.145x    frame=  133 fps= 14 q=40.0 size=       1kB time=00:00:01.40 bitrate=   4.2kbits/s speed=0.15x    frame=  140 fps= 14 q=40.0 size=       1kB time=00:00:01.54 bitrate=   3.8kbits/s speed=0.155x    frame=  148 fps= 14 q=40.0 size=       1kB time=00:00:01.70 bitrate=   3.5kbits/s speed=0.159x    frame=  154 fps= 14 q=40.0 size=       1kB time=00:00:01.82 bitrate=   3.2kbits/s speed=0.162x    frame=  161 fps= 14 q=39.0 size=       1kB time=00:00:01.96 bitrate=   3.0kbits/s speed=0.167x    frame=  168 fps= 14 q=39.0 size=       1kB time=00:00:02.10 bitrate=   2.8kbits/s speed=0.17x    frame=  173 fps= 13 q=39.0 size=       1kB time=00:00:02.20 bitrate=   2.7kbits/s speed=0.17x    frame=  179 fps= 13 q=39.0 size=       1kB time=00:00:02.32 bitrate=   2.5kbits/s speed=0.172x    frame=  187 fps= 13 q=39.0 size=       1kB time=00:00:02.48 bitrate=   2.4kbits/s speed=0.175x    frame=  195 fps= 13 q=39.0 size=       1kB time=00:00:02.64 bitrate=   2.2kbits/s speed=0.178x    frame=  201 fps= 13 q=39.0 size=       1kB time=00:00:02.76 bitrate=   2.1kbits/s speed=0.18x    frame=  206 fps= 13 q=39.0 size=       1kB time=00:00:02.86 bitrate=   2.1kbits/s speed=0.18x    frame=  212 fps= 13 q=39.0 size=       1kB time=00:00:02.98 bitrate=   2.0kbits/s speed=0.181x    frame=  219 fps= 13 q=39.0 size=       1kB time=00:00:03.12 bitrate=   1.9kbits/s speed=0.183x    frame=  224 fps= 13 q=39.0 size=       1kB time=00:00:03.22 bitrate=   1.8kbits/s speed=0.183x    frame=  232 fps= 13 q=39.0 size=       1kB time=00:00:03.38 bitrate=   1.7kbits/s speed=0.184x    frame=  239 fps= 13 q=39.0 size=       1kB time=00:00:03.52 bitrate=   1.7kbits/s speed=0.186x    frame=  245 fps= 13 q=38.0 size=       1kB time=00:00:03.64 bitrate=   1.6kbits/s speed=0.187x    frame=  251 fps= 12 q=38.0 size=       1kB time=00:00:03.76 bitrate=   1.6kbits/s speed=0.187x    frame=  259 fps= 12 q=38.0 size=       1kB time=00:00:03.92 bitrate=   1.5kbits/s speed=0.188x    frame=  266 fps= 12 q=38.0 size=       1kB time=00:00:04.06 bitrate=   1.4kbits/s speed=0.19x    frame=  270 fps= 12 q=38.0 size=       1kB time=00:00:04.14 bitrate=   1.4kbits/s speed=0.19x    frame=  272 fps= 12 q=38.0 size=       1kB time=00:00:04.18 bitrate=   1.4kbits/s speed=0.182x    frame=  273 fps= 11 q=39.0 size=       1kB time=00:00:04.20 bitrate=   1.4kbits/s speed=0.177x    frame=  275 fps= 11 q=39.0 size=       1kB time=00:00:04.24 bitrate=   1.4kbits/s speed=0.172x    frame=  279 fps= 11 q=39.0 size=       1kB time=00:00:04.32 bitrate=   1.4kbits/s speed=0.172x    frame=  283 fps= 11 q=39.0 size=       1kB time=00:00:04.40 bitrate=   1.3kbits/s speed=0.171x    frame=  287 fps= 11 q=39.0 size=       1kB time=00:00:04.48 bitrate=   1.3kbits/s speed=0.171x    frame=  291 fps= 11 q=39.0 size=       1kB time=00:00:04.56 bitrate=   1.3kbits/s speed=0.171x    frame=  295 fps= 11 q=39.0 size=       1kB time=00:00:04.64 bitrate=   1.3kbits/s speed=0.171x    frame=  299 fps= 11 q=39.0 size=       1kB time=00:00:04.72 bitrate=   1.2kbits/s speed=0.17x    frame=  303 fps= 11 q=39.0 size=       1kB time=00:00:04.80 bitrate=   1.2kbits/s speed=0.17x    frame=  311 fps= 11 q=39.0 size=    2181kB time=00:00:04.96 bitrate=3602.0kbits/s speed=0.17x    frame=  318 fps= 11 q=39.0 size=    2181kB time=00:00:05.10 bitrate=3503.1kbits/s speed=0.172x    frame=  325 fps= 11 q=39.0 size=    2181kB time=00:00:05.24 bitrate=3409.5kbits/s speed=0.173x    frame=  332 fps= 11 q=39.0 size=    2181kB time=00:00:05.38 bitrate=3320.8kbits/s speed=0.174x    frame=  338 fps= 11 q=39.0 size=    2181kB time=00:00:05.50 bitrate=3248.4kbits/s speed=0.175x    frame=  345 fps= 11 q=39.0 size=    2181kB time=00:00:05.64 bitrate=3167.8kbits/s speed=0.177x    frame=  350 fps= 11 q=39.0 size=    2181kB time=00:00:05.74 bitrate=3112.6kbits/s speed=0.176x    frame=  356 fps= 11 q=39.0 size=    2181kB time=00:00:05.86 bitrate=3048.9kbits/s speed=0.177x    frame=  362 fps= 11 q=39.0 size=    2181kB time=00:00:05.98 bitrate=2987.7kbits/s speed=0.178x    frame=  368 fps= 11 q=39.0 size=    2181kB time=00:00:06.10 bitrate=2928.9kbits/s speed=0.179x    frame=  373 fps= 11 q=39.0 size=    2181kB time=00:00:06.20 bitrate=2881.7kbits/s speed=0.179x    frame=  380 fps= 11 q=39.0 size=    2181kB time=00:00:06.34 bitrate=2818.1kbits/s speed=0.18x    frame=  387 fps= 11 q=39.0 size=    2181kB time=00:00:06.48 bitrate=2757.2kbits/s speed=0.181x    frame=  392 fps= 11 q=39.0 size=    2181kB time=00:00:06.58 bitrate=2715.3kbits/s speed=0.181x    frame=  398 fps= 11 q=39.0 size=    2181kB time=00:00:06.70 bitrate=2666.7kbits/s speed=0.182x    frame=  404 fps= 11 q=39.0 size=    2181kB time=00:00:06.82 bitrate=2619.8kbits/s speed=0.182x    frame=  409 fps= 11 q=39.0 size=    2181kB time=00:00:06.92 bitrate=2581.9kbits/s speed=0.182x    frame=  414 fps= 11 q=39.0 size=    2181kB time=00:00:07.02 bitrate=2545.1kbits/s speed=0.182x    frame=  421 fps= 11 q=39.0 size=    2181kB time=00:00:07.16 bitrate=2495.4kbits/s speed=0.182x    frame=  429 fps= 11 q=39.0 size=    2181kB time=00:00:07.32 bitrate=2440.8kbits/s speed=0.183x    frame=  437 fps= 11 q=39.0 size=    2181kB time=00:00:07.48 bitrate=2388.6kbits/s speed=0.184x    frame=  441 fps= 11 q=39.0 size=    2181kB time=00:00:07.56 bitrate=2363.4kbits/s speed=0.184x    frame=  448 fps= 11 q=39.0 size=    2181kB time=00:00:07.70 bitrate=2320.4kbits/s speed=0.184x    frame=  454 fps= 11 q=39.0 size=    2181kB time=00:00:07.82 bitrate=2284.8kbits/s speed=0.185x    frame=  460 fps= 11 q=39.0 size=    2181kB time=00:00:07.94 bitrate=2250.3kbits/s speed=0.185x    frame=  466 fps= 11 q=39.0 size=    2181kB time=00:00:08.06 bitrate=2216.8kbits/s speed=0.185x    frame=  473 fps= 11 q=39.0 size=    2181kB time=00:00:08.20 bitrate=2178.9kbits/s speed=0.185x    frame=  480 fps= 11 q=39.0 size=    2181kB time=00:00:08.34 bitrate=2142.3kbits/s speed=0.186x    frame=  486 fps= 11 q=39.0 size=    2181kB time=00:00:08.46 bitrate=2112.0kbits/s speed=0.186x    frame=  493 fps= 11 q=39.0 size=    2181kB time=00:00:08.60 bitrate=2077.6kbits/s speed=0.186x    frame=  500 fps= 11 q=39.0 size=    2181kB time=00:00:08.74 bitrate=2044.3kbits/s speed=0.187x    frame=  500 fps=9.6 q=-1.0 Lsize=    4840kB time=00:00:09.94 bitrate=3988.3kbits/s speed=0.191x    
video:4835kB audio:0kB subtitle:0kB other streams:0kB global headers:0kB muxing overhead: 0.089286%
bench: utime=179.752s
bench: maxrss=2225812kB
[libx264 @ 0x28d8120] frame I:3     Avg QP:35.53  size:148090
[libx264 @ 0x28d8120] frame P:183   Avg QP:37.22  size: 13207
[libx264 @ 0x28d8120] frame B:314   Avg QP:39.64  size:  6655
[libx264 @ 0x28d8120] consecutive B-frames: 16.0%  0.8%  0.0% 83.2%
[libx264 @ 0x28d8120] mb I  I16..4: 40.6% 51.4%  8.0%
[libx264 @ 0x28d8120] mb P  I16..4:  0.1%  0.0%  0.0%  P16..4: 15.8%  0.8%  2.6%  0.0%  0.0%    skip:80.6%
[libx264 @ 0x28d8120] mb B  I16..4:  0.0%  0.0%  0.0%  B16..8: 27.3%  0.0%  0.0%  direct: 0.0%  skip:72.6%  L0:42.5% L1:57.5% BI: 0.0%
[libx264 @ 0x28d8120] final ratefactor: 31.27
[libx264 @ 0x28d8120] 8x8 transform intra:49.3% inter:88.2%
[libx264 @ 0x28d8120] direct mvs  spatial:98.7% temporal:1.3%
[libx264 @ 0x28d8120] coded y,uvDC,uvAC intra: 37.7% 37.1% 10.9% inter: 0.7% 1.1% 0.0%
[libx264 @ 0x28d8120] i16 v,h,dc,p:  7% 17%  1% 75%
[libx264 @ 0x28d8120] i8 v,h,dc,ddl,ddr,vr,hd,vl,hu:  5%  5% 19% 10% 16% 10% 17%  7% 12%
[libx264 @ 0x28d8120] i4 v,h,dc,ddl,ddr,vr,hd,vl,hu:  3%  3%  3% 15% 21% 12% 20%  8% 15%
[libx264 @ 0x28d8120] i8c dc,h,v,p: 15% 65% 12%  7%
[libx264 @ 0x28d8120] Weighted P-Frames: Y:0.5% UV:0.0%
[libx264 @ 0x28d8120] ref P L0: 69.2% 21.7%  6.9%  1.1%  0.9%  0.2%
[libx264 @ 0x28d8120] ref B L0: 92.4%  6.3%  1.1%  0.2%
[libx264 @ 0x28d8120] ref B L1: 97.3%  2.7%
[libx264 @ 0x28d8120] kb/s:3960.63
